<svg width="131" height="40" viewBox="0 0 131 40" fill="none" xmlns="http://www.w3.org/2000/svg">
<g id="movix-logo 1">
<g id="Group 1">
<path id="Vector" d="M17.5 33C24.9558 33 31 26.9558 31 19.5C31 12.0442 24.9558 6 17.5 6C10.0442 6 4 12.0442 4 19.5C4 26.9558 10.0442 33 17.5 33Z" fill="url(#paint0_linear_1_2)"/>
<path id="Vector_2" d="M14.3633 13C14.4278 13.0349 14.5202 13.076 14.6059 13.1317C17.1821 14.8201 19.758 16.5097 22.3335 18.1989C22.8011 18.5052 23.2684 18.8122 23.7354 19.1204C24.0881 19.3537 24.0894 19.6648 23.7322 19.8996C21.1136 21.6206 18.4938 23.3391 15.8749 25.058C15.4513 25.3361 15.0293 25.6161 14.6034 25.8898C14.2385 26.1245 14.0026 25.9781 14.0026 25.5093C14.0006 21.5046 14.0026 17.4995 14 13.4943C14 13.231 14.0668 13.0412 14.3633 13Z" fill="white"/>
</g>
<path id="Vector_3" fill-rule="evenodd" clip-rule="evenodd" d="M98.9399 19.019V12.62H103.58V19.019H98.9399ZM93.4504 19.019L96.2583 12.62H91.1833L89.0131 19.019H93.4504ZM88.3348 21.019H92.5729L89.5013 28.019H85.8473L82.9207 21.019H87.3349L87.8299 22.5076L88.3348 21.019ZM86.6699 19.019L84.5423 12.62H79.4093L82.0846 19.019H86.6699ZM78.423 19.019C78.2768 17.9864 77.9485 17.0424 77.438 16.187C76.7226 14.9883 75.7366 14.041 74.48 13.345C73.2426 12.649 71.8216 12.301 70.217 12.301C68.6123 12.301 67.1816 12.649 65.925 13.345C64.6876 14.041 63.7016 14.9883 62.967 16.187C62.4565 17.0424 62.1282 17.9864 61.982 19.019H66.7605C66.8319 18.747 66.9304 18.4893 67.056 18.246C67.3653 17.6273 67.7906 17.144 68.332 16.796C68.8926 16.448 69.521 16.274 70.217 16.274C70.913 16.274 71.5316 16.448 72.073 16.796C72.6143 17.144 73.0396 17.6273 73.349 18.246C73.4746 18.4893 73.5731 18.747 73.6445 19.019H78.423ZM78.4846 21.019H73.7523C73.694 21.5077 73.5596 21.956 73.349 22.364C73.0396 22.9633 72.6143 23.437 72.073 23.785C71.5316 24.133 70.913 24.307 70.217 24.307C69.521 24.307 68.8926 24.133 68.332 23.785C67.7906 23.437 67.3653 22.9633 67.056 22.364C66.8454 21.956 66.711 21.5077 66.6527 21.019H61.9203C62.0148 22.2774 62.3637 23.4121 62.967 24.423C63.7016 25.6217 64.6876 26.569 65.925 27.265C67.1816 27.961 68.6123 28.309 70.217 28.309C71.8216 28.309 73.2426 27.961 74.48 27.265C75.7366 26.569 76.7226 25.6217 77.438 24.423C78.0413 23.4121 78.3901 22.2774 78.4846 21.019ZM98.9399 21.019H103.58V28.019H98.9399V21.019ZM116 21.019V27.599H117.39H120.5V21.019H116ZM120.5 21.019V11L129.5 10.79V5.179H116.745H114.245H111.245H108.245V10.79L116 11V21.019H120.5ZM101.26 9.575C100.39 9.575 99.7036 9.372 99.2009 8.966C98.7176 8.5407 98.4759 7.94133 98.4759 7.168C98.4759 6.472 98.7272 5.90166 99.2299 5.457C99.7326 5.01233 100.409 4.79 101.26 4.79C102.13 4.79 102.807 5.00266 103.29 5.428C103.774 5.834 104.015 6.414 104.015 7.168C104.015 7.88333 103.764 8.4633 103.261 8.908C102.778 9.3527 102.111 9.575 101.26 9.575ZM38 28.019V7.719H42.408L48.2247 17.1854L54.124 7.719H58.358V28.019H53.573V21.697C53.573 19.957 53.6117 18.391 53.689 16.999C53.7173 16.5919 53.7505 16.1856 53.7887 15.7801L49.078 23.089H47.164L42.5718 15.8623C42.5985 16.1906 42.6213 16.5212 42.64 16.854C42.7367 18.2073 42.785 19.8217 42.785 21.697V28.019H38Z" fill="url(#paint1_linear_1_2)"/>
</g>
<defs>
<linearGradient id="paint0_linear_1_2" x1="4.66832" y1="24.1098" x2="34.1078" y2="13.9886" gradientUnits="userSpaceOnUse">
<stop stop-color="#F89E00"/>
<stop offset="1" stop-color="#DA2F68"/>
</linearGradient>
<linearGradient id="paint1_linear_1_2" x1="35.4961" y1="26.2198" x2="124.453" y2="23.9271" gradientUnits="userSpaceOnUse">
<stop stop-color="#F8D000"/>
<stop offset="1" stop-color="#D03E58"/>
</linearGradient>
</defs>
</svg>
